<svg aria-hidden="true" style="position: absolute; width: 0; height: 0; overflow: hidden;" version="1.1" xmlns="http://www.w3.org/2000/svg" xmlns:xlink="http://www.w3.org/1999/xlink">
<defs>
<symbol id="EduConf" viewBox="0 0 152 32">
<path d="M142.777 31.472v-14.32h-3.685v-4.145h3.685v-6.071c0-1.563 0.265-2.847 0.795-3.852 0.558-1.005 1.298-1.759 2.219-2.261s1.968-0.754 3.14-0.754h2.68v4.187h-1.507c-0.698 0-1.228 0.251-1.591 0.754-0.363 0.475-0.544 1.214-0.544 2.219v5.778h4.355v4.145h-4.355v14.32h-5.192z"></path>
<path d="M119.455 31.472v-18.465h5.192v2.596c0.614-0.893 1.41-1.605 2.387-2.135 0.977-0.558 2.094-0.837 3.35-0.837 1.591 0 2.889 0.335 3.894 1.005 1.005 0.642 1.759 1.563 2.261 2.764s0.754 2.624 0.754 4.271v10.803h-5.192v-10.803c0-0.726-0.098-1.368-0.293-1.926s-0.517-0.991-0.963-1.298c-0.446-0.307-1.033-0.461-1.758-0.461-0.949 0-1.759 0.265-2.429 0.796-0.67 0.502-1.173 1.2-1.507 2.094-0.335 0.865-0.502 1.828-0.502 2.889v8.709h-5.192z"></path>
<path d="M106.047 31.807c-1.982 0-3.768-0.391-5.359-1.173-1.591-0.809-2.847-1.94-3.768-3.392s-1.382-3.126-1.382-5.025c0-1.87 0.461-3.517 1.382-4.941 0.921-1.452 2.177-2.596 3.768-3.434s3.377-1.256 5.359-1.256c1.982 0 3.755 0.419 5.318 1.256 1.591 0.837 2.847 1.982 3.768 3.434 0.949 1.424 1.424 3.071 1.424 4.941 0 1.898-0.461 3.573-1.382 5.025s-2.177 2.582-3.768 3.392c-1.591 0.782-3.377 1.173-5.36 1.173zM106.047 27.62c1.145 0 2.094-0.251 2.847-0.754 0.754-0.53 1.312-1.2 1.675-2.010 0.363-0.837 0.544-1.717 0.544-2.638 0-0.949-0.195-1.828-0.586-2.638-0.363-0.837-0.921-1.507-1.675-2.010-0.726-0.53-1.661-0.796-2.805-0.796s-2.094 0.265-2.847 0.796c-0.754 0.502-1.326 1.172-1.717 2.010-0.363 0.81-0.544 1.689-0.544 2.638 0 0.921 0.181 1.8 0.544 2.638 0.363 0.81 0.921 1.48 1.675 2.010 0.782 0.503 1.745 0.754 2.889 0.754z"></path>
<path d="M80.534 31.891c-2.010 0-3.894-0.377-5.653-1.131s-3.308-1.801-4.648-3.141c-1.312-1.368-2.345-2.931-3.099-4.69-0.754-1.787-1.131-3.685-1.131-5.694 0-1.982 0.363-3.852 1.089-5.611 0.754-1.787 1.787-3.35 3.099-4.69 1.34-1.368 2.889-2.429 4.648-3.182 1.759-0.782 3.657-1.172 5.695-1.172 2.094 0 4.048 0.419 5.862 1.256s3.392 1.982 4.731 3.434c1.368 1.424 2.387 3.099 3.057 5.025h-5.736c-0.782-1.563-1.898-2.75-3.35-3.559s-3.029-1.214-4.731-1.214c-1.144 0-2.261 0.237-3.35 0.712s-2.066 1.158-2.931 2.052c-0.865 0.865-1.563 1.898-2.094 3.099-0.502 1.172-0.754 2.457-0.754 3.852 0 1.34 0.237 2.61 0.712 3.81 0.502 1.173 1.172 2.205 2.010 3.099 0.837 0.866 1.814 1.563 2.931 2.094 1.144 0.502 2.359 0.754 3.643 0.754 1.703 0 3.266-0.447 4.689-1.34 1.452-0.921 2.54-2.094 3.266-3.517h5.736c-0.67 1.898-1.689 3.587-3.057 5.067-1.34 1.451-2.931 2.596-4.773 3.433-1.814 0.837-3.768 1.256-5.862 1.256z"></path>
<path d="M52.44 31.891c-1.563 0-2.847-0.335-3.852-1.005-1.005-0.698-1.759-1.647-2.261-2.847-0.475-1.228-0.712-2.624-0.712-4.187v-10.845h5.192v10.845c0 0.726 0.098 1.368 0.293 1.926s0.517 0.991 0.963 1.298c0.447 0.307 1.033 0.461 1.758 0.461 1.005 0 1.829-0.251 2.47-0.754 0.67-0.53 1.159-1.242 1.466-2.136 0.335-0.893 0.502-1.856 0.502-2.889v-8.751h5.192v18.465h-5.192v-2.554c-0.642 0.921-1.451 1.647-2.428 2.177s-2.108 0.796-3.392 0.796z"></path>
<path d="M29.884 31.891c-1.731 0-3.294-0.447-4.69-1.34-1.368-0.893-2.443-2.080-3.224-3.559s-1.173-3.057-1.173-4.732c0-1.703 0.391-3.28 1.173-4.731s1.856-2.638 3.224-3.559c1.396-0.921 2.959-1.382 4.69-1.382 1.284 0 2.498 0.237 3.643 0.712s2.108 1.228 2.889 2.261v-15.493h5.15v31.404h-5.15v-2.512c-0.447 0.642-1.019 1.186-1.717 1.633-0.698 0.419-1.466 0.74-2.303 0.963-0.809 0.223-1.647 0.335-2.512 0.335zM31.308 27.578c0.977 0 1.842-0.251 2.596-0.754 0.782-0.502 1.396-1.158 1.842-1.968s0.67-1.675 0.67-2.596c0-0.949-0.223-1.814-0.67-2.596-0.447-0.81-1.061-1.466-1.842-1.968-0.754-0.502-1.619-0.754-2.596-0.754s-1.842 0.251-2.596 0.754-1.354 1.158-1.8 1.968c-0.447 0.782-0.67 1.647-0.67 2.596 0 0.921 0.223 1.787 0.67 2.596s1.047 1.466 1.8 1.968c0.754 0.502 1.619 0.754 2.596 0.754z"></path>
<path d="M1.269 31.472v-28.473h17.461v4.69h-12.31v7.16h11.892v4.731h-11.892v7.202h12.31v4.69h-17.461z"></path>
</symbol>
<symbol id="verified" viewBox="0 0 32 32">
<path d="M14.567 17.503l-2.393-2.502c-0.212-0.233-0.469-0.349-0.77-0.349s-0.569 0.103-0.802 0.308c-0.233 0.236-0.349 0.504-0.349 0.805s0.116 0.568 0.349 0.801l3.162 3.128c0.229 0.232 0.497 0.348 0.805 0.348s0.576-0.116 0.802-0.348l6.028-5.995c0.21-0.205 0.316-0.46 0.316-0.765s-0.116-0.563-0.349-0.773c-0.211-0.183-0.462-0.269-0.753-0.258s-0.528 0.111-0.711 0.299l-5.335 5.302zM10.923 29.351l-2.051-3.509-4.101-0.833c-0.282-0.050-0.515-0.199-0.7-0.449s-0.256-0.514-0.211-0.795l0.467-3.966-2.609-3.045c-0.199-0.207-0.299-0.459-0.299-0.756s0.1-0.548 0.299-0.753l2.609-3.012-0.467-3.966c-0.044-0.28 0.026-0.545 0.211-0.795s0.419-0.402 0.7-0.457l4.104-0.827 2.048-3.541c0.148-0.246 0.362-0.421 0.642-0.525s0.557-0.092 0.834 0.035l3.601 1.684 3.601-1.684c0.276-0.122 0.554-0.138 0.834-0.048s0.493 0.257 0.642 0.504l2.082 3.574 4.071 0.827c0.282 0.055 0.515 0.207 0.7 0.457s0.256 0.514 0.211 0.795l-0.467 3.966 2.609 3.012c0.199 0.206 0.299 0.458 0.299 0.756s-0.1 0.548-0.299 0.753l-2.609 3.045 0.467 3.966c0.044 0.28-0.026 0.545-0.211 0.795s-0.419 0.399-0.7 0.449l-4.068 0.833-2.084 3.543c-0.149 0.247-0.363 0.415-0.642 0.504s-0.557 0.073-0.834-0.048l-3.601-1.684-3.601 1.684c-0.276 0.122-0.554 0.132-0.834 0.032s-0.493-0.274-0.642-0.521zM12.463 27.279l3.536-1.497 3.636 1.497 2.218-3.309 3.868-0.992-0.392-3.944 2.668-3.034-2.668-3.101 0.392-3.943-3.868-0.925-2.281-3.309-3.57 1.496-3.636-1.496-2.215 3.311-3.862 0.92 0.384 3.946-2.668 3.101 2.668 3.035-0.384 4.013 3.861 0.92 2.314 3.311z"></path>
</symbol>
<symbol id="X" viewBox="0 0 32 32">
<path d="M22.901 5.657h3.68l-8.040 9.037 9.459 12.297h-7.406l-5.801-7.458-6.637 7.458h-3.682l8.6-9.666-9.074-11.668h7.594l5.243 6.817 6.064-6.817zM21.61 24.824h2.039l-13.163-17.115h-2.188l13.312 17.115z"></path>
</symbol>
<symbol id="LinkedIn" viewBox="0 0 32 32">
<path d="M25.75 4h-19.5c-1.237 0-2.25 1.013-2.25 2.25v19.5c0 1.237 1.013 2.25 2.25 2.25h19.5c1.237 0 2.25-1.013 2.25-2.25v-19.5c0-1.237-1.013-2.25-2.25-2.25zM13 23.5h-3v-10.5h3v10.5zM11.5 11.5c-0.829 0-1.5-0.671-1.5-1.5s0.671-1.5 1.5-1.5c0.829 0 1.5 0.671 1.5 1.5s-0.671 1.5-1.5 1.5zM23.5 23.5h-3v-6c0-0.829-0.671-1.5-1.5-1.5s-1.5 0.671-1.5 1.5v6h-3v-10.5h3v1.861c0.619-0.848 1.565-1.861 2.625-1.861 1.866 0 3.375 1.679 3.375 3.75v6.75z"></path>
</symbol>
<symbol id="Instagram" viewBox="0 0 32 32">
<path d="M15.998 6.161c3.206 0 3.585 0.014 4.846 0.071 1.172 0.052 1.804 0.248 2.226 0.412 0.558 0.216 0.961 0.478 1.378 0.895 0.422 0.422 0.679 0.82 0.9 1.378 0.164 0.422 0.361 1.059 0.413 2.226 0.056 1.266 0.070 1.645 0.070 4.847s-0.014 3.585-0.070 4.847c-0.052 1.172-0.248 1.804-0.413 2.227-0.216 0.558-0.478 0.961-0.895 1.377-0.422 0.422-0.82 0.679-1.378 0.9-0.422 0.164-1.060 0.361-2.226 0.412-1.266 0.056-1.645 0.071-4.847 0.071s-3.585-0.014-4.847-0.071c-1.172-0.052-1.804-0.248-2.226-0.412-0.558-0.216-0.961-0.478-1.378-0.895-0.422-0.422-0.679-0.82-0.9-1.378-0.164-0.422-0.361-1.060-0.412-2.226-0.056-1.266-0.071-1.645-0.071-4.847s0.014-3.585 0.071-4.847c0.052-1.172 0.248-1.804 0.412-2.226 0.216-0.558 0.478-0.961 0.895-1.378 0.422-0.422 0.82-0.679 1.378-0.9 0.422-0.164 1.059-0.361 2.226-0.412 1.261-0.056 1.641-0.071 4.847-0.071h0.001zM15.998 4.001c-3.258 0-3.665 0.014-4.945 0.071-1.275 0.056-2.151 0.262-2.91 0.558-0.792 0.309-1.462 0.717-2.127 1.387-0.67 0.666-1.078 1.336-1.387 2.123-0.295 0.764-0.502 1.636-0.558 2.91-0.056 1.285-0.071 1.692-0.071 4.949s0.014 3.665 0.071 4.945c0.056 1.275 0.262 2.151 0.558 2.91 0.31 0.792 0.717 1.462 1.387 2.127 0.665 0.665 1.336 1.078 2.123 1.383 0.764 0.295 1.636 0.502 2.91 0.558 1.279 0.056 1.687 0.071 4.945 0.071s3.666-0.014 4.945-0.071c1.275-0.056 2.151-0.262 2.91-0.558 0.787-0.305 1.458-0.717 2.123-1.383s1.078-1.336 1.383-2.123c0.295-0.764 0.502-1.635 0.558-2.91 0.056-1.279 0.071-1.687 0.071-4.945s-0.014-3.665-0.071-4.945c-0.056-1.275-0.262-2.151-0.558-2.91-0.295-0.797-0.703-1.467-1.373-2.133-0.665-0.665-1.336-1.078-2.123-1.383-0.764-0.295-1.636-0.502-2.91-0.558-1.284-0.061-1.692-0.075-4.949-0.075l-0.001 0.001z"></path>
<path d="M15.997 9.836c-3.402 0-6.163 2.76-6.163 6.163s2.76 6.163 6.163 6.163c3.403 0 6.163-2.76 6.163-6.163s-2.76-6.163-6.163-6.163zM15.997 19.997c-2.208 0-3.998-1.79-3.998-3.998s1.79-3.998 3.998-3.998c2.208 0 3.998 1.79 3.998 3.998s-1.79 3.998-3.998 3.998z"></path>
<path d="M23.842 9.592c0 0.795-0.644 1.439-1.439 1.439s-1.439-0.644-1.439-1.439 0.644-1.439 1.439-1.439c0.795 0 1.439 0.644 1.439 1.439z"></path>
</symbol>
<symbol id="Facebook" viewBox="0 0 32 32">
<path d="M29.333 16.405c0-7.409-5.969-13.415-13.333-13.415s-13.333 6.006-13.333 13.415c0 6.696 4.876 12.245 11.25 13.252v-9.374h-3.385v-3.878h3.385v-2.955c0-3.362 1.991-5.219 5.036-5.219 1.459 0 2.985 0.262 2.985 0.262v3.301h-1.681c-1.656 0-2.173 1.034-2.173 2.095v2.516h3.698l-0.591 3.878h-3.107v9.374c6.374-1.006 11.25-6.556 11.25-13.252z"></path>
</symbol>
<symbol id="close" viewBox="0 0 32 32">
<path stroke-linejoin="miter" stroke-linecap="butt" stroke-miterlimit="4" stroke-width="1.3333" d="M23.466 7.9c0.219 0 0.355 0.065 0.462 0.172s0.172 0.242 0.172 0.461c0 0.219-0.065 0.355-0.172 0.462l-7.005 7.005 7.005 7.004c0.107 0.107 0.172 0.243 0.172 0.462s-0.065 0.355-0.172 0.462-0.243 0.172-0.462 0.172c-0.219 0-0.355-0.065-0.462-0.172l-7.004-7.005-7.005 7.005c-0.107 0.107-0.243 0.172-0.462 0.172s-0.354-0.065-0.461-0.172c-0.107-0.107-0.172-0.243-0.172-0.462s0.065-0.355 0.172-0.462l7.004-7.004-7.004-7.005c-0.107-0.107-0.172-0.243-0.172-0.462s0.065-0.354 0.172-0.461 0.242-0.172 0.461-0.172c0.219 0 0.355 0.065 0.462 0.172l7.005 7.004 7.004-7.004c0.107-0.107 0.243-0.172 0.462-0.172z"></path>
</symbol>
<symbol id="menu" viewBox="0 0 32 32">
<path d="M4.936 24.295c-0.321 0-0.59-0.11-0.808-0.329s-0.327-0.493-0.327-0.82c0-0.322 0.109-0.591 0.327-0.807s0.488-0.323 0.808-0.323h22.127c0.321 0 0.591 0.11 0.812 0.329s0.331 0.49 0.331 0.812c0 0.328-0.11 0.599-0.331 0.814s-0.492 0.323-0.812 0.323h-22.127zM4.936 17.136c-0.321 0-0.59-0.11-0.808-0.329s-0.327-0.49-0.327-0.812c0-0.322 0.109-0.591 0.327-0.806s0.488-0.323 0.808-0.323h22.127c0.321 0 0.591 0.11 0.812 0.329s0.331 0.49 0.331 0.812c0 0.322-0.11 0.591-0.331 0.806s-0.492 0.323-0.812 0.323h-22.127zM4.936 9.984c-0.321 0-0.59-0.11-0.808-0.329s-0.327-0.493-0.327-0.82c0-0.322 0.109-0.591 0.327-0.806s0.488-0.323 0.808-0.323h22.127c0.321 0 0.591 0.11 0.812 0.329s0.331 0.49 0.331 0.812c0 0.328-0.11 0.599-0.331 0.815s-0.492 0.323-0.812 0.323h-22.127z"></path>
</symbol>
<symbol id="Logo" viewBox="0 0 133 32">
<path d="M12.303 17.936h5.443c0.285 0 0.525-0.098 0.721-0.296s0.294-0.439 0.294-0.725c0-0.289-0.098-0.53-0.294-0.725s-0.436-0.292-0.721-0.292h-5.444c-0.288 0-0.529 0.099-0.723 0.297s-0.291 0.441-0.291 0.729c0 0.288 0.097 0.528 0.291 0.722s0.435 0.291 0.723 0.291zM12.299 14.914h11.128c0.283 0 0.522-0.099 0.718-0.296s0.294-0.439 0.294-0.725c0-0.289-0.098-0.53-0.294-0.725s-0.436-0.292-0.718-0.292h-11.128c-0.286 0-0.525 0.099-0.719 0.297s-0.291 0.441-0.291 0.728c0 0.288 0.097 0.528 0.291 0.722s0.433 0.291 0.719 0.291zM12.299 11.892h11.128c0.283 0 0.522-0.099 0.718-0.296s0.294-0.439 0.294-0.725c0-0.289-0.098-0.53-0.294-0.725s-0.436-0.292-0.718-0.292h-11.128c-0.286 0-0.525 0.099-0.719 0.297s-0.291 0.441-0.291 0.729 0.097 0.528 0.291 0.722c0.194 0.194 0.433 0.291 0.719 0.291zM8.732 25.244c-0.603 0-1.127-0.221-1.57-0.664s-0.664-0.966-0.664-1.57v-18.222c0-0.606 0.221-1.131 0.664-1.575s0.966-0.667 1.57-0.667h18.222c0.606 0 1.131 0.222 1.575 0.667s0.667 0.97 0.667 1.575v18.222c0 0.603-0.222 1.127-0.667 1.57s-0.97 0.664-1.575 0.664h-18.222zM8.732 23.010h18.222v-18.222h-18.222v18.222zM4.53 29.454c-0.606 0-1.131-0.222-1.575-0.667s-0.667-0.97-0.667-1.575v-19.34c0-0.315 0.108-0.58 0.324-0.795s0.483-0.322 0.803-0.322c0.32 0 0.585 0.107 0.797 0.322s0.318 0.48 0.318 0.795v19.34h19.34c0.315 0 0.58 0.108 0.795 0.324s0.322 0.484 0.322 0.803c0 0.32-0.107 0.585-0.322 0.798s-0.48 0.318-0.795 0.318h-19.34z"></path>
<path d="M126.585 24.27v-9.363h-2.409v-2.71h2.409v-3.97c0-1.022 0.174-1.862 0.521-2.519 0.364-0.657 0.848-1.15 1.451-1.478 0.602-0.329 1.286-0.493 2.053-0.493h1.753v2.738h-0.986c-0.457 0-0.804 0.164-1.040 0.493-0.238 0.31-0.357 0.794-0.357 1.451v3.778h2.848v2.71h-2.848v9.363h-3.394z"></path>
<path d="M111.336 24.27v-12.074h3.395v1.697c0.401-0.584 0.922-1.049 1.561-1.396 0.639-0.365 1.369-0.548 2.19-0.548 1.040 0 1.889 0.219 2.546 0.657 0.657 0.42 1.15 1.022 1.478 1.807s0.493 1.716 0.493 2.793v7.064h-3.395v-7.064c0-0.474-0.064-0.894-0.192-1.259s-0.338-0.648-0.63-0.849c-0.292-0.201-0.675-0.301-1.15-0.301-0.621 0-1.15 0.173-1.588 0.52-0.438 0.329-0.767 0.785-0.986 1.369-0.219 0.566-0.329 1.195-0.329 1.889v5.695h-3.395z"></path>
<path d="M102.569 24.489c-1.296 0-2.464-0.256-3.504-0.767-1.040-0.529-1.862-1.268-2.464-2.218s-0.903-2.044-0.903-3.285c0-1.223 0.301-2.3 0.903-3.231 0.602-0.949 1.424-1.697 2.464-2.245s2.208-0.821 3.504-0.821c1.296 0 2.455 0.274 3.477 0.821 1.040 0.548 1.862 1.296 2.464 2.245 0.621 0.931 0.931 2.008 0.931 3.231 0 1.241-0.301 2.336-0.903 3.285s-1.424 1.688-2.464 2.218c-1.040 0.511-2.208 0.767-3.504 0.767zM102.569 21.752c0.748 0 1.369-0.164 1.862-0.493 0.493-0.347 0.858-0.785 1.095-1.314 0.237-0.548 0.356-1.122 0.356-1.725 0-0.621-0.128-1.195-0.383-1.725-0.237-0.548-0.602-0.986-1.095-1.314-0.474-0.347-1.086-0.52-1.834-0.52s-1.369 0.173-1.862 0.52c-0.493 0.329-0.867 0.767-1.122 1.314-0.237 0.529-0.356 1.104-0.356 1.725 0 0.602 0.119 1.177 0.356 1.725 0.237 0.529 0.602 0.967 1.095 1.314 0.511 0.329 1.141 0.493 1.889 0.493z"></path>
<path d="M85.888 24.544c-1.314 0-2.546-0.246-3.696-0.739s-2.163-1.177-3.039-2.053c-0.858-0.894-1.533-1.916-2.026-3.066-0.493-1.168-0.739-2.409-0.739-3.723 0-1.296 0.237-2.519 0.712-3.669 0.493-1.168 1.168-2.19 2.026-3.066 0.876-0.894 1.889-1.588 3.039-2.081 1.15-0.511 2.391-0.767 3.723-0.767 1.369 0 2.647 0.274 3.833 0.821s2.218 1.296 3.094 2.245c0.894 0.931 1.561 2.026 1.999 3.285h-3.751c-0.511-1.022-1.241-1.798-2.19-2.327s-1.98-0.794-3.094-0.794c-0.748 0-1.478 0.155-2.19 0.465s-1.351 0.757-1.916 1.341c-0.566 0.566-1.022 1.241-1.369 2.026-0.329 0.767-0.493 1.606-0.493 2.519 0 0.876 0.155 1.707 0.465 2.491 0.329 0.767 0.767 1.442 1.314 2.026 0.548 0.566 1.186 1.022 1.916 1.369 0.748 0.329 1.542 0.493 2.382 0.493 1.113 0 2.135-0.292 3.066-0.876 0.949-0.602 1.661-1.369 2.135-2.3h3.751c-0.438 1.241-1.104 2.345-1.999 3.313-0.876 0.949-1.917 1.697-3.121 2.245-1.186 0.548-2.464 0.821-3.833 0.821z"></path>
<path d="M67.519 24.544c-1.022 0-1.862-0.219-2.519-0.657-0.657-0.456-1.15-1.077-1.478-1.862-0.31-0.803-0.465-1.716-0.465-2.738v-7.091h3.395v7.091c0 0.475 0.064 0.894 0.192 1.259s0.338 0.648 0.63 0.849c0.292 0.201 0.675 0.301 1.15 0.301 0.657 0 1.196-0.164 1.615-0.493 0.438-0.347 0.758-0.812 0.958-1.396 0.219-0.584 0.329-1.214 0.329-1.889v-5.722h3.395v12.074h-3.395v-1.67c-0.42 0.602-0.949 1.077-1.588 1.424s-1.378 0.52-2.218 0.52z"></path>
<path d="M52.77 24.544c-1.132 0-2.154-0.292-3.066-0.876-0.894-0.584-1.597-1.36-2.108-2.327s-0.767-1.999-0.767-3.094c0-1.113 0.255-2.145 0.767-3.094s1.214-1.725 2.108-2.327c0.913-0.602 1.935-0.903 3.066-0.903 0.84 0 1.633 0.155 2.382 0.465s1.378 0.803 1.889 1.478v-10.13h3.367v20.533h-3.367v-1.643c-0.292 0.42-0.666 0.776-1.122 1.068-0.456 0.274-0.958 0.484-1.506 0.63-0.529 0.146-1.077 0.219-1.643 0.219zM53.701 21.724c0.639 0 1.205-0.164 1.697-0.493 0.511-0.328 0.913-0.757 1.205-1.287s0.438-1.095 0.438-1.697c0-0.621-0.146-1.186-0.438-1.697-0.292-0.529-0.694-0.958-1.205-1.287-0.493-0.329-1.059-0.493-1.697-0.493s-1.205 0.164-1.697 0.493-0.885 0.757-1.177 1.287c-0.292 0.511-0.438 1.077-0.438 1.697 0 0.602 0.146 1.168 0.438 1.697s0.684 0.958 1.177 1.287c0.493 0.329 1.059 0.493 1.697 0.493z"></path>
<path d="M34.061 24.27v-18.617h11.417v3.066h-8.049v4.682h7.775v3.094h-7.775v4.709h8.049v3.066h-11.417z"></path>
</symbol>
<symbol id="library_books" viewBox="0 0 32 32">
<path d="M12.303 17.936h5.443c0.285 0 0.525-0.098 0.721-0.296s0.294-0.439 0.294-0.725c0-0.289-0.098-0.53-0.294-0.725s-0.436-0.292-0.721-0.292h-5.444c-0.288 0-0.529 0.099-0.723 0.297s-0.291 0.441-0.291 0.729c0 0.288 0.097 0.528 0.291 0.722s0.435 0.291 0.723 0.291zM12.299 14.914h11.128c0.283 0 0.522-0.099 0.718-0.296s0.294-0.439 0.294-0.725c0-0.289-0.098-0.53-0.294-0.725s-0.436-0.292-0.718-0.292h-11.128c-0.286 0-0.525 0.099-0.719 0.297s-0.291 0.441-0.291 0.728c0 0.288 0.097 0.528 0.291 0.722s0.433 0.291 0.719 0.291zM12.299 11.892h11.128c0.283 0 0.522-0.099 0.718-0.296s0.294-0.439 0.294-0.725c0-0.289-0.098-0.53-0.294-0.725s-0.436-0.292-0.718-0.292h-11.128c-0.286 0-0.525 0.099-0.719 0.297s-0.291 0.441-0.291 0.729 0.097 0.528 0.291 0.722c0.194 0.194 0.433 0.291 0.719 0.291zM8.732 25.244c-0.603 0-1.127-0.221-1.57-0.664s-0.664-0.966-0.664-1.57v-18.222c0-0.606 0.221-1.131 0.664-1.575s0.966-0.667 1.57-0.667h18.222c0.606 0 1.131 0.222 1.575 0.667s0.667 0.97 0.667 1.575v18.222c0 0.603-0.222 1.127-0.667 1.57s-0.97 0.664-1.575 0.664h-18.222zM8.732 23.010h18.222v-18.222h-18.222v18.222zM4.53 29.454c-0.606 0-1.131-0.222-1.575-0.667s-0.667-0.97-0.667-1.575v-19.34c0-0.315 0.108-0.58 0.324-0.795s0.483-0.322 0.803-0.322c0.32 0 0.585 0.107 0.797 0.322s0.318 0.48 0.318 0.795v19.34h19.34c0.315 0 0.58 0.108 0.795 0.324s0.322 0.484 0.322 0.803c0 0.32-0.107 0.585-0.322 0.798s-0.48 0.318-0.795 0.318h-19.34z"></path>
</symbol>
</defs>
</svg>
