<svg width="22" height="22" viewBox="0 0 22 22" fill="none" xmlns="http://www.w3.org/2000/svg">
<path d="M8.18905 12.5831H12.6404C12.8731 12.5831 13.0697 12.5025 13.23 12.3415C13.3904 12.1802 13.4705 11.9825 13.4705 11.7483C13.4705 11.5124 13.3904 11.3147 13.23 11.1554C13.0697 10.9962 12.8731 10.9165 12.6404 10.9165H8.18905C7.95326 10.9165 7.75617 10.9975 7.59778 11.1595C7.43939 11.3214 7.3602 11.52 7.3602 11.7553C7.3602 11.9906 7.43939 12.1873 7.59778 12.3455C7.75617 12.5039 7.95326 12.5831 8.18905 12.5831ZM8.18557 10.1121H17.2847C17.5159 10.1121 17.7116 10.0314 17.872 9.8702C18.0321 9.70913 18.1122 9.5115 18.1122 9.27732C18.1122 9.04134 18.0321 8.84372 17.872 8.68443C17.7116 8.52515 17.5159 8.44551 17.2847 8.44551H8.18557C7.9521 8.44551 7.75617 8.52649 7.59778 8.68846C7.43939 8.85024 7.3602 9.04876 7.3602 9.28402C7.3602 9.51928 7.43939 9.7161 7.59778 9.87449C7.75617 10.0329 7.9521 10.1121 8.18557 10.1121ZM8.18557 7.64106H17.2847C17.5159 7.64106 17.7116 7.56044 17.872 7.39919C18.0321 7.23812 18.1122 7.04049 18.1122 6.80631C18.1122 6.57033 18.0321 6.37271 17.872 6.21343C17.7116 6.05414 17.5159 5.9745 17.2847 5.9745H8.18557C7.9521 5.9745 7.75617 6.0554 7.59778 6.21718C7.43939 6.37914 7.3602 6.57775 7.3602 6.81301C7.3602 7.04827 7.43939 7.24509 7.59778 7.40348C7.75617 7.56187 7.9521 7.64106 8.18557 7.64106ZM5.26916 18.5594C4.77576 18.5594 4.34788 18.3783 3.98552 18.0161C3.62334 17.6537 3.44225 17.2258 3.44225 16.7324V1.83158C3.44225 1.33639 3.62334 0.906993 3.98552 0.543381C4.34788 0.179947 4.77576 -0.00177002 5.26916 -0.00177002H20.17C20.6652 -0.00177002 21.0946 0.179947 21.4582 0.543381C21.8217 0.906993 22.0034 1.33639 22.0034 1.83158V16.7324C22.0034 17.2258 21.8217 17.6537 21.4582 18.0161C21.0946 18.3783 20.6652 18.5594 20.17 18.5594H5.26916ZM5.26916 16.7324H20.17V1.83158H5.26916V16.7324ZM1.83335 22.0016C1.33816 22.0016 0.908763 21.8199 0.54515 21.4564C0.181717 21.0928 0 20.6634 0 20.1683V4.3538C0 4.09602 0.0882214 3.87935 0.264665 3.7038C0.441108 3.52825 0.660008 3.44048 0.921366 3.44048C1.18272 3.44048 1.40001 3.52825 1.57324 3.7038C1.74664 3.87935 1.83335 4.09602 1.83335 4.3538V20.1683H17.6478C17.9056 20.1683 18.1222 20.2565 18.2978 20.4329C18.4733 20.6095 18.5611 20.8284 18.5611 21.0896C18.5611 21.351 18.4733 21.5684 18.2978 21.7418C18.1222 21.915 17.9056 22.0016 17.6478 22.0016H1.83335Z" fill="#03030A"/>
</svg>
